<svg width="141" height="101" viewBox="0 0 141 101" fill="none" xmlns="http://www.w3.org/2000/svg">
<path d="M104.06 101C104.06 101 99.7142 95.8298 96.0925 91.2606C111.907 86.812 117.942 76.9524 117.942 76.9524C112.993 80.1991 108.285 82.4837 104.06 84.0467C98.0242 86.5717 92.2296 88.2548 86.5559 89.2168C74.9667 91.3813 64.3433 90.7798 55.2896 89.0967C48.4084 87.7741 42.4932 85.85 37.5437 83.9265C34.7671 82.8442 31.7491 81.5216 28.7312 79.8385C28.369 79.5976 28.0068 79.4774 27.6447 79.237C27.4032 79.1168 27.2825 78.9966 27.1618 78.8765C24.9889 77.6741 23.7817 76.8322 23.7817 76.8322C23.7817 76.8322 29.5762 86.4515 44.9075 91.0202C41.286 95.5894 36.8193 101 36.8193 101C10.1404 100.158 0 82.7241 0 82.7241C0 44.0077 17.3835 12.6259 17.3835 12.6259C34.7671 -0.359711 51.3059 0.000999198 51.3059 0.000999198L52.5129 1.44384C30.7834 7.69615 20.7637 17.1949 20.7637 17.1949C20.7637 17.1949 23.4195 15.752 27.8861 13.708C40.8031 8.05687 51.0642 6.4938 55.2896 6.13307C56.0138 6.01283 56.6175 5.89259 57.3417 5.89259C64.7054 4.93071 73.035 4.69024 81.7271 5.65211C93.195 6.97476 105.509 10.3414 118.063 17.1949C118.063 17.1949 108.527 8.17711 88.0041 1.92479L89.6941 0.000999198C89.6941 0.000999198 106.233 -0.359711 123.616 12.6259C123.616 12.6259 141 44.0077 141 82.7241C141 82.7241 130.739 100.158 104.06 101ZM47.9255 44.8494C41.0445 44.8494 35.6122 50.8611 35.6122 58.1957C35.6122 65.5303 41.1653 71.5418 47.9255 71.5418C54.8067 71.5418 60.2387 65.5303 60.2387 58.1957C60.3596 50.8611 54.8067 44.8494 47.9255 44.8494ZM91.9879 44.8494C85.1071 44.8494 79.6746 50.8611 79.6746 58.1957C79.6746 65.5303 85.2279 71.5418 91.9879 71.5418C98.8692 71.5418 104.301 65.5303 104.301 58.1957C104.301 50.8611 98.8692 44.8494 91.9879 44.8494Z" fill="white"/>
</svg>
