<svg width="113" height="113" viewBox="0 0 113 113" fill="none" xmlns="http://www.w3.org/2000/svg">
<path d="M99.5477 53.8094H91.4763V32.2857C91.4763 26.3398 86.6604 21.5237 80.7143 21.5237H59.1906V13.4523C59.1906 6.02658 53.1637 0 45.738 0C38.3123 0 32.2857 6.02658 32.2857 13.4523V21.5237H10.762C4.81612 21.5237 0.0539777 26.3396 0.0539777 32.2857L0.0269888 52.7334H8.07143C16.0891 52.7334 22.6 59.2443 22.6 67.262C22.6 75.2797 16.0891 81.7906 8.07143 81.7906H0.0269888L0 102.238C0 108.184 4.81587 113 10.762 113H31.2097V104.929C31.2097 96.9109 37.7206 90.4 45.7383 90.4C53.756 90.4 60.2668 96.9109 60.2668 104.929V113H80.7143C86.6602 113 91.4763 108.184 91.4763 102.238V80.7143H99.5477C106.973 80.7143 113 74.6877 113 67.262C113 59.8363 106.973 53.8094 99.5477 53.8094Z" fill="white"/>
</svg>
