<svg width="113" height="113" viewBox="0 0 113 113" fill="none" xmlns="http://www.w3.org/2000/svg">
<path d="M109.45 18.8635C109.445 13.8634 105.394 9.81271 100.394 9.8067H12.5698C7.56965 9.81271 3.51809 13.8634 3.51294 18.8635V27.8466H109.45V18.8635ZM13.5235 24.8414C10.2232 24.8414 7.54563 22.1646 7.54563 18.8635C7.54563 15.5616 10.2232 12.8848 13.5252 12.8848C16.8255 12.8848 19.5031 15.5616 19.5031 18.8635C19.4988 22.1638 16.8246 24.8388 13.5235 24.8414ZM27.366 24.8414C24.0641 24.8414 21.3882 22.1646 21.3882 18.8627C21.3899 15.5607 24.0666 12.8848 27.3677 12.8848C30.6697 12.8857 33.3456 15.5616 33.3456 18.8635C33.3422 22.1646 30.6663 24.8388 27.366 24.8414ZM41.2077 24.8414C37.9058 24.8414 35.229 22.1655 35.229 18.8635C35.229 15.5616 37.9058 12.8848 41.2077 12.8848C44.5097 12.8848 47.1856 15.5616 47.1856 18.8635C47.183 22.1638 44.508 24.8388 41.2077 24.8414Z" fill="white"/>
<path d="M27.3661 16.728C26.1859 16.728 25.2296 17.6843 25.2296 18.8635C25.2296 20.0428 26.1859 20.9991 27.3661 20.9991C28.5462 20.9991 29.5016 20.0428 29.5016 18.8635C29.5008 17.6843 28.5462 16.7297 27.3661 16.728Z" fill="white"/>
<path d="M12.5698 102.38H100.394C105.394 102.375 109.445 98.3227 109.45 93.3234V31.6889H3.51294V93.3234C3.51809 98.3227 7.56965 102.375 12.5698 102.38ZM65.765 45.2699H95.9544C97.0153 45.2699 97.8755 46.1309 97.8755 47.191C97.8755 48.2528 97.0153 49.1122 95.9544 49.1122H65.765C64.7032 49.1122 63.8438 48.2528 63.8438 47.191C63.8438 46.1309 64.7032 45.2699 65.765 45.2699ZM65.765 59.1596H95.9544C97.0153 59.1596 97.8755 60.0207 97.8755 61.0807C97.8755 62.1425 97.0153 63.0019 95.9544 63.0019H65.765C64.7032 63.0019 63.8438 62.1425 63.8438 61.0807C63.8438 60.0207 64.7032 59.1596 65.765 59.1596ZM65.765 73.0493H95.9544C97.0153 73.0493 97.8755 73.9104 97.8755 74.9704C97.8755 76.0322 97.0153 76.8916 95.9544 76.8916H65.765C64.7032 76.8916 63.8438 76.0322 63.8438 74.9704C63.8438 73.9104 64.7032 73.0493 65.765 73.0493ZM65.765 86.939H95.9544C97.0153 86.939 97.8755 87.8001 97.8755 88.8602C97.8755 89.9219 97.0153 90.7813 95.9544 90.7813H65.765C64.7032 90.7813 63.8438 89.9219 63.8438 88.8602C63.8438 87.8001 64.7032 86.939 65.765 86.939ZM14.4909 47.191C14.4909 46.1309 15.3503 45.2699 16.4121 45.2699H51.2672C52.3289 45.2699 53.1883 46.1309 53.1883 47.191V88.8602C53.1883 89.9219 52.3289 90.7813 51.2672 90.7813H16.4121C15.3503 90.7813 14.4909 89.9219 14.4909 88.8602V47.191Z" fill="white"/>
<path d="M41.2077 16.728C40.0285 16.7271 39.0713 17.6834 39.0713 18.8635C39.0713 20.0428 40.0276 20.9991 41.2077 20.9991C42.387 20.9991 43.3433 20.0428 43.3433 18.8635C43.3424 17.6843 42.387 16.7297 41.2077 16.728Z" fill="white"/>
<path d="M13.5235 16.728C12.3451 16.728 11.3879 17.6843 11.3879 18.8635C11.3879 20.0428 12.3451 20.9991 13.5235 20.9991C14.7045 20.9991 15.6608 20.0428 15.6608 18.8635C15.6591 17.6843 14.7036 16.7297 13.5235 16.728Z" fill="white"/>
<path d="M18.3332 49.1122H49.346V86.939H18.3332V49.1122Z" fill="white"/>
</svg>
